<svg width="120" height="164" viewBox="0 0 120 164" fill="none" xmlns="http://www.w3.org/2000/svg">
<path d="M118.366 72.4948C117.732 68.0899 116.791 63.7311 115.519 59.473C114.881 57.344 114.167 55.2402 113.377 53.17C112.58 51.0998 111.702 49.0632 110.749 47.0643C108.843 43.0667 106.613 39.2286 104.073 35.6257C101.541 32.0185 98.6769 28.6507 95.5319 25.5937C93.9573 24.0694 92.3029 22.629 90.5771 21.2853C88.8597 19.9373 87.0583 18.6902 85.1982 17.5606C81.4737 15.2972 77.4805 13.4789 73.3151 12.2654C69.1455 11.056 64.8206 10.4219 60.4873 10.4345C56.1539 10.4471 51.8332 11.0896 47.6762 12.3158C43.5192 13.5419 39.5386 15.3728 35.8267 17.6404C32.1148 19.9122 28.6885 22.6626 25.577 25.7323C22.4614 28.8019 19.6607 32.1949 17.1833 35.8188C12.2243 43.0709 8.55859 51.1922 6.07699 59.6536C5.45975 61.77 4.91808 63.9116 4.45199 66.07C3.98171 68.2242 3.58281 70.3994 3.25949 72.5872C2.61284 76.9586 2.27693 81.3804 2.20974 85.8106C2.10897 94.6626 3.16711 103.561 5.53533 112.119C6.70684 116.398 8.23107 120.584 10.0576 124.628C11.8842 128.672 14.0508 132.565 16.5534 136.226C19.0602 139.884 21.9029 143.311 25.0689 146.397C28.2434 149.475 31.7285 152.234 35.5118 154.489C39.2867 156.748 43.3345 158.545 47.5502 159.73C49.6581 160.317 51.8038 160.771 53.9663 161.061C56.1287 161.355 58.3122 161.481 60.4915 161.468C64.85 161.426 69.1917 160.758 73.3655 159.511C77.5351 158.26 81.5283 156.425 85.2528 154.14C87.1171 153.002 88.9101 151.747 90.6317 150.39C92.3533 149.038 93.9993 147.59 95.5781 146.061C98.7231 143 101.583 139.628 104.115 136.012C106.651 132.401 108.876 128.563 110.783 124.565C111.736 122.566 112.609 120.526 113.407 118.455C114.2 116.381 114.914 114.277 115.548 112.152C116.821 107.894 117.757 103.531 118.391 99.1305C119.021 94.7213 119.315 90.2701 119.323 85.819C119.298 81.351 119 76.8998 118.366 72.4948ZM118.71 99.1599C118.143 103.59 117.287 107.987 116.145 112.312C115.569 114.474 114.91 116.616 114.175 118.732C113.449 120.849 112.638 122.944 111.744 125.002C109.96 129.117 107.856 133.106 105.391 136.882C102.993 140.543 100.277 144.012 97.2115 147.165C97.2031 147.195 97.1905 147.224 97.1737 147.249C97.1737 147.249 97.1779 147.249 97.1779 147.254C97.1275 147.321 97.0771 147.388 97.0267 147.451C96.8797 147.686 96.8042 147.976 96.527 148.085C96.4598 148.11 96.3969 148.119 96.3339 148.123C96.2751 148.165 96.2121 148.211 96.1449 148.253C96.1323 148.257 96.1197 148.266 96.1113 148.27C93.1553 151.163 89.9137 153.779 86.3865 155.98C82.5319 158.386 78.3581 160.317 73.9786 161.607C69.6032 162.892 65.0348 163.542 60.4789 163.505C55.923 163.458 51.3797 162.732 47.0464 161.388C42.713 160.036 38.5938 158.062 34.7896 155.631C30.9853 153.2 27.5001 150.311 24.3509 147.102C21.1933 143.903 18.3758 140.388 15.8858 136.659C10.9016 129.21 7.20652 120.937 4.72073 112.337C4.09928 110.187 3.56181 108.012 3.09573 105.82C2.62544 103.628 2.22654 101.423 1.90322 99.2061C1.26497 94.7717 0.916459 90.2912 0.857674 85.8022C0.761097 76.8326 1.80664 67.8127 4.17486 59.1119C6.54728 50.4237 10.2172 42.0463 15.2559 34.5171C17.7711 30.7545 20.6306 27.2104 23.8386 23.9896C27.0467 20.7772 30.5948 17.8755 34.4704 15.461C38.3377 13.0422 42.5283 11.1022 46.9162 9.79202C51.3083 8.48606 55.8936 7.81418 60.4789 7.81838C65.0599 7.83518 69.641 8.51545 74.0247 9.84241C78.4085 11.1652 82.5822 13.1178 86.4369 15.545C88.3642 16.7585 90.2076 18.0981 91.9712 19.5342C93.7263 20.9746 95.3975 22.5115 96.9805 24.1324C100.155 27.3658 102.956 30.9393 105.416 34.7144C107.873 38.4937 109.976 42.4872 111.761 46.6024C112.651 48.66 113.461 50.7555 114.188 52.8719C114.923 54.9883 115.578 57.1299 116.153 59.2925C117.295 63.6177 118.148 68.0143 118.714 72.4445C119 74.6574 119.206 76.883 119.34 79.1128C119.479 81.3426 119.55 83.5724 119.55 85.8064C119.55 88.0362 119.474 90.2702 119.332 92.4958C119.206 94.7255 118.996 96.9469 118.71 99.1599Z" fill="#251C1C"/>
<path d="M112.873 85.8062C112.839 93.7217 111.869 101.637 109.845 109.309L109.022 112.173C108.728 113.122 108.401 114.059 108.094 115.003C107.952 115.478 107.763 115.936 107.591 116.406L107.07 117.8C106.982 118.031 106.902 118.266 106.805 118.497L106.516 119.186L105.936 120.563C104.353 124.212 102.485 127.748 100.301 131.095C98.1135 134.433 95.6277 137.599 92.8186 140.463C90.0053 143.323 86.8855 145.91 83.4591 148.039C80.0369 150.172 76.3334 151.873 72.4494 153.015C68.5737 154.165 64.5217 154.728 60.4823 154.715C56.4387 154.673 52.4161 154.018 48.574 152.822C44.732 151.621 41.0747 149.882 37.6987 147.732C37.4804 147.606 37.2788 147.459 37.0731 147.321L36.4558 146.896L35.2213 146.044L34.033 145.129L33.4409 144.671C33.2436 144.52 33.042 144.373 32.8573 144.205L31.7194 143.231C31.3415 142.903 30.951 142.592 30.5982 142.24L29.5107 141.211L28.969 140.694C28.7885 140.522 28.6247 140.337 28.4484 140.157C25.6519 137.318 23.1535 134.202 20.949 130.897C16.5275 124.288 13.2439 116.96 11.0394 109.334L10.271 106.458L10.1744 106.097L10.0905 105.736L9.92671 105.009L9.59919 103.556L9.43543 102.83L9.29686 102.099L9.02393 100.634C8.82658 99.6594 8.69641 98.6768 8.54945 97.6942C7.98679 93.7595 7.66346 89.787 7.60888 85.8104C7.57529 81.8295 7.78943 77.8444 8.27232 73.8888C8.39828 72.9019 8.50326 71.9067 8.68381 70.9241L8.92736 69.446L9.04913 68.7069C9.09531 68.4633 9.1499 68.2156 9.19609 67.972L9.50261 66.5065L9.65378 65.7759L9.72936 65.4105L9.82174 65.0494L10.5482 62.1435C12.656 54.4379 15.9186 47.0137 20.3821 40.3369C22.616 37.0028 25.148 33.8575 27.9907 31.0021C28.167 30.8215 28.3392 30.6367 28.5198 30.4646L29.074 29.9481L30.1783 28.9193C30.5395 28.5665 30.9384 28.2558 31.3205 27.9282L32.4794 26.954C32.6683 26.7902 32.8741 26.6391 33.0756 26.4879L33.6803 26.0302L34.8896 25.119L36.1451 24.2707L36.7749 23.8466C36.9849 23.708 37.1906 23.5568 37.409 23.4351C40.8395 21.2935 44.5598 19.5802 48.4523 18.4212C52.3447 17.2622 56.4093 16.6533 60.4739 16.6533C64.5385 16.6743 68.5989 17.2832 72.483 18.4674C76.367 19.639 80.0747 21.3565 83.4927 23.5065C86.919 25.6481 90.0305 28.2558 92.8396 31.1238C95.6529 33.9919 98.1345 37.1623 100.318 40.5091C102.497 43.8601 104.366 47.4 105.949 51.0492L106.528 52.4265L106.818 53.1152C106.915 53.3461 106.994 53.5813 107.082 53.8123L107.603 55.2106C107.771 55.6767 107.964 56.1386 108.107 56.6131C108.414 57.558 108.737 58.4944 109.031 59.4434L109.854 62.3073C111.886 69.9709 112.852 77.8906 112.873 85.8062ZM10.2206 71.1803C10.0233 72.1377 9.88892 73.1119 9.74615 74.0819C9.17509 77.9578 8.86437 81.8799 8.80139 85.8062C8.76779 89.7324 8.97354 93.6671 9.46482 97.5682C9.59079 98.5424 9.69997 99.5208 9.88052 100.491L10.1241 101.944L10.2458 102.67C10.292 102.914 10.3466 103.153 10.397 103.393L10.7035 104.837L10.8547 105.559L10.9303 105.92L11.0226 106.277L11.7491 109.137C12.7904 112.933 14.1467 116.641 15.7675 120.227C17.3883 123.813 19.3156 127.261 21.5327 130.511C23.7539 133.753 26.2775 136.793 29.0824 139.531C29.2588 139.703 29.4267 139.884 29.6073 140.048L30.1532 140.543L30.1825 140.568C30.2287 140.631 30.2875 140.682 30.3547 140.728C30.5856 140.883 30.8166 141.047 31.0433 141.215C31.0265 141.244 31.0097 141.274 30.9888 141.299L31.2449 141.53C31.6018 141.866 31.9923 142.16 32.3702 142.475L33.5081 143.403C33.6929 143.562 33.8944 143.701 34.0918 143.844L34.6838 144.276L35.8722 145.137L37.1025 145.931H37.1067C36.0863 139.754 36.4054 133.194 37.4006 127.047C38.2026 122.071 39.5966 117.216 41.5198 112.568C41.4442 112.543 41.377 112.505 41.3266 112.454C40.4154 111.497 39.6764 110.456 39.1222 109.259C38.9584 108.91 39.4287 108.625 39.6428 108.956C40.2013 109.826 40.8437 110.619 41.587 111.329C42.1454 110.472 42.7123 109.616 43.2413 108.738C43.6277 108.1 44.5304 108.658 44.2281 109.313C42.7459 112.509 41.5282 115.822 40.5708 119.211C42.6871 119.954 44.5724 121.201 46.2058 122.755C46.7013 123.221 46.5039 123.944 46.0085 124.3C44.3625 125.468 42.179 125.749 40.2937 125.019C39.9661 124.893 39.6134 124.729 39.3153 124.515C39.1348 125.43 38.971 126.345 38.8324 127.265C38.7862 127.572 38.7401 127.878 38.6981 128.185C40.3986 128.244 42.0362 128.798 43.4345 129.78C44.0476 130.213 44.9167 130.755 45.0511 131.553C45.1813 132.308 44.606 133.001 44.0392 133.425C42.7921 134.358 40.5582 134.731 39.1641 133.942C38.7317 133.698 38.4209 133.379 38.2026 133.018C38.127 134.181 38.0808 135.349 38.0682 136.516C38.0682 136.642 38.0682 136.768 38.0682 136.894C38.19 136.873 38.316 136.873 38.4545 136.898C39.6134 137.125 40.8269 137.398 41.8347 138.04C42.6283 138.544 43.6403 139.464 43.5689 140.509C43.4177 142.718 39.878 141.832 38.2068 141.106C38.3118 142.722 38.4587 144.339 38.6015 145.968C38.6099 146.082 38.5931 146.183 38.5553 146.271C38.5889 146.309 38.6183 146.355 38.6225 146.409C38.6477 146.577 38.6939 146.758 38.7149 146.938C39.2523 147.253 39.7982 147.56 40.3483 147.85C39.773 146.309 39.7226 144.318 39.9704 142.769C39.9997 142.592 40.2517 142.651 40.2601 142.806C40.3273 143.743 40.3567 144.675 40.512 145.603C40.6548 146.43 40.9529 147.228 41.0789 148.055C41.0873 148.114 41.0789 148.169 41.0579 148.219C41.3056 148.345 41.5534 148.471 41.8011 148.589C41.8641 148.643 41.9355 148.685 42.0194 148.719C42.0908 148.769 42.1832 148.803 42.284 148.816C42.326 148.832 42.368 148.845 42.41 148.857C42.4226 148.866 42.4393 148.87 42.4519 148.879C42.4519 148.879 42.4519 148.879 42.4561 148.879C42.4519 148.883 42.4477 148.891 42.4435 148.895C44.5682 149.891 46.7685 150.718 49.0191 151.352L49.7204 151.549C49.8757 151.591 50.0269 151.637 50.1822 151.675C50.2704 151.717 50.3712 151.747 50.472 151.763C51.0052 151.835 51.5259 152.032 52.0424 152.192C52.2062 152.242 52.3489 152.229 52.4707 152.183L52.5547 152.2C52.7898 152.255 53.0333 152.28 53.2727 152.318L54.7087 152.54C54.9481 152.574 55.1832 152.624 55.4268 152.641L56.149 152.704L57.5934 152.83C57.8328 152.859 58.0763 152.859 58.3199 152.864L59.0463 152.88L59.8651 152.901C59.8651 152.897 59.8651 152.889 59.8651 152.88C59.8693 152.88 59.8693 152.88 59.8735 152.88C60.1086 152.906 60.3438 152.914 60.5789 152.927C60.6209 152.935 60.6671 152.948 60.7133 152.952C61.045 152.99 61.3431 153.011 61.6622 152.985C61.6706 152.985 61.6832 152.985 61.6916 152.985C61.6916 152.985 61.6916 152.985 61.6916 152.981C61.7504 152.977 61.8092 152.973 61.868 152.96C61.952 152.948 62.0233 152.914 62.0905 152.864C65.4203 152.7 68.7207 152.108 71.9119 151.154C72.0631 151.108 72.2142 151.058 72.3654 151.012C72.4746 151.045 72.5922 151.045 72.7013 151.003C73.1086 150.835 73.5159 150.663 73.919 150.495C75.7078 149.861 77.4588 149.109 79.1551 148.253C79.1509 148.244 79.1509 148.24 79.1467 148.232C79.1425 148.211 79.1384 148.194 79.1341 148.173C79.1971 148.16 79.2601 148.139 79.3189 148.106C79.3315 148.102 79.3399 148.097 79.3483 148.093C79.5415 148.022 79.722 147.934 79.9026 147.837C79.9026 147.845 79.9026 147.854 79.9026 147.862C80.7675 147.405 81.6199 146.922 82.4597 146.409C82.6697 146.292 82.867 146.149 83.0728 146.019L83.6816 145.62L84.8951 144.822L86.0667 143.961L86.6545 143.529C86.8519 143.386 87.0492 143.243 87.234 143.088L88.3593 142.164C88.733 141.853 89.1193 141.559 89.472 141.223L90.5512 140.245L91.0928 139.754C91.2734 139.59 91.4413 139.413 91.6135 139.241C91.6177 139.237 91.6219 139.229 91.6303 139.224C91.7101 139.191 91.7856 139.132 91.8612 139.052C91.9998 138.897 92.1384 138.746 92.2811 138.595C92.6464 138.267 92.9992 137.94 93.3057 137.557C93.3393 137.52 93.3603 137.482 93.3813 137.44C95.4807 135.218 97.4207 132.837 99.18 130.326C101.426 127.127 103.404 123.721 105.096 120.177L105.718 118.837L106.029 118.17C106.134 117.947 106.222 117.716 106.318 117.489L106.881 116.129C107.066 115.671 107.271 115.226 107.431 114.76C107.767 113.836 108.115 112.912 108.435 111.984L109.333 109.171C111.575 101.612 112.655 93.7091 112.68 85.8145C112.646 77.92 111.559 70.0213 109.316 62.4627L108.418 59.6492C108.094 58.7211 107.75 57.7973 107.414 56.8735C107.255 56.4074 107.049 55.9581 106.864 55.5045L106.297 54.144C106.201 53.9172 106.113 53.6863 106.012 53.4637L105.701 52.796L105.08 51.4607C103.387 47.9165 101.41 44.5152 99.159 41.3196C96.9126 38.1198 94.3764 35.1341 91.5883 32.4214C91.4161 32.2534 91.2482 32.0729 91.0676 31.9091L90.526 31.422L89.4426 30.4478C89.0899 30.116 88.6994 29.8221 88.3257 29.5113L87.1962 28.5959C87.0114 28.4363 86.8141 28.2978 86.6167 28.155L86.0289 27.7267L84.8573 26.87L83.6396 26.0764L83.0308 25.6817C82.8292 25.5515 82.6319 25.4087 82.4177 25.2953C79.1132 23.2923 75.5692 21.6924 71.8741 20.6132C68.1832 19.5382 64.3454 18.9671 60.5033 18.9713C56.6613 18.9881 52.8276 19.5634 49.1451 20.6552C45.4584 21.7428 41.9271 23.3553 38.6351 25.3625C38.4251 25.4801 38.2278 25.6229 38.0262 25.753L37.4006 26.1436L36.1913 26.9414L35.0282 27.8065L34.4445 28.2348C34.2513 28.3818 34.054 28.5203 33.8692 28.6757L32.7523 29.5995C32.3828 29.9103 31.9965 30.2042 31.648 30.5444L30.5772 31.527L30.044 32.0225C29.8676 32.1863 29.6997 32.3668 29.5275 32.5348C26.7688 35.2601 24.283 38.2709 22.0869 41.4833C17.6906 47.9124 14.4364 55.114 12.2319 62.6138L11.4635 65.4483L11.367 65.801L11.283 66.1622L11.1192 66.876L10.7917 68.308L10.6279 69.026L10.4936 69.7483L10.2206 71.1803ZM42.2672 123.41C42.1664 123.36 42.0656 123.309 41.9691 123.246C41.9439 123.288 41.9145 123.335 41.8851 123.377C42.0152 123.398 42.1412 123.41 42.2672 123.41Z" fill="#251C1C"/>
<path d="M74.5012 9.5986C71.881 7.97769 69.2567 6.37359 66.5987 4.81148C65.2719 4.03042 63.9492 3.24516 62.6265 2.45991C61.5306 1.80903 60.3255 0.914591 58.9902 0.948185C57.8859 0.97338 56.8739 1.9812 56.0425 2.61528C54.9844 3.42573 53.9514 4.26138 52.9437 5.13482C50.7644 7.02447 48.6439 9.0401 46.83 11.2867C46.7502 11.3875 46.8762 11.5218 46.9727 11.4295C48.8539 9.62799 50.7098 7.81392 52.7169 6.15522C53.7415 5.31118 54.7954 4.49653 55.8704 3.71968C56.9117 2.96802 58.079 1.82582 59.4647 2.21635C60.6824 2.56068 61.8413 3.61049 62.8826 4.30336C64.0584 5.08862 65.2341 5.87387 66.4056 6.66333C68.7528 8.24224 71.1252 9.77077 73.506 11.2951C74.5768 11.9838 75.5761 10.2663 74.5012 9.5986Z" fill="#251C1C"/>
<path d="M59.4552 3.58894C59.1403 3.274 58.6784 3.15641 58.2501 3.26979C58.2375 3.27399 58.2249 3.27399 58.2123 3.27819C58.1157 3.32018 58.0149 3.36218 57.9184 3.40417C57.7756 3.47976 57.658 3.58894 57.574 3.71911C57.4145 3.92487 57.2969 4.19362 57.3095 4.46236C57.3179 4.68072 57.3767 4.89069 57.4775 5.08385C57.616 5.3484 57.9268 5.57516 58.2123 5.65074C58.2249 5.65494 58.2375 5.65494 58.2501 5.65914C58.6658 5.76832 59.1571 5.66333 59.4552 5.34C59.6777 5.09644 59.8163 4.7983 59.8163 4.46236C59.8163 4.15162 59.6777 3.81569 59.4552 3.58894Z" fill="#251C1C"/>
<path d="M77.0128 85.735C74.4598 84.4375 71.7515 83.5599 68.9382 83.1525C69.1733 82.5562 69.2447 81.9264 69.1649 81.3175C70.7144 81.2629 72.268 81.3553 73.8342 81.5904C74.2121 81.6492 74.3801 81.0739 73.9938 81.0109C72.3478 80.7338 70.6892 80.654 69.0432 80.7506C68.9382 80.3978 68.7828 80.0619 68.5813 79.7553C68.7366 79.7386 68.892 79.7218 69.0474 79.705C71.4618 79.4446 73.7838 79.6714 76.1898 79.7553C76.4921 79.7637 76.5677 79.2767 76.2612 79.2179C73.7796 78.7392 71.0293 78.9533 68.5435 79.3186C68.4553 79.3312 68.3671 79.3438 68.279 79.3564C67.9346 78.9701 67.498 78.6468 66.9815 78.4326C65.8604 77.9665 64.5839 78.126 63.4585 78.4914C62.35 78.8525 61.1575 79.3942 60.0994 80.0073C60.6494 78.8903 60.7544 77.6557 60.5571 76.375C60.4941 75.9677 59.9314 75.8879 59.6753 76.144C59.3184 76.4968 59.0118 76.9041 58.7683 77.3408C58.5583 76.9125 58.2602 76.543 57.7773 76.3288C57.0467 76.0013 56.0935 76.0726 55.6191 76.7949C55.1278 77.5424 55.4847 78.4956 55.9844 79.1339C56.0642 79.2347 56.1481 79.3228 56.2447 79.411C54.4853 79.1507 52.6546 79.1171 51.059 79.6042C49.8959 79.9611 48.8335 80.759 48.3171 81.8172C45.6885 81.939 43.0767 82.3421 40.507 83.0391C40.1501 83.1357 40.3012 83.6942 40.6581 83.5934C43.1103 82.9006 45.6129 82.4596 48.1365 82.2707C47.9853 82.7536 47.9391 83.2785 48.0441 83.8328C48.0693 83.9714 48.1071 84.1016 48.1491 84.2275C47.2757 84.4585 46.4107 84.7188 45.5625 85.0338C43.589 85.7686 41.0528 86.8563 39.8099 88.6451C39.705 88.7963 39.9107 88.9894 40.0619 88.8971C40.9983 88.3092 41.7919 87.5197 42.745 86.9444C43.8494 86.2767 45.0335 85.7393 46.2512 85.3025C46.944 85.0548 47.6452 84.849 48.3506 84.6559C48.7076 85.2647 49.3038 85.6385 49.9924 85.8778C48.7747 86.7303 47.683 87.7675 46.9188 88.9559C46.7424 89.2288 47.1497 89.5479 47.3681 89.3044C48.4682 88.0992 49.5222 87.0158 50.7231 86.0752C51.63 86.2641 52.6126 86.2851 53.4062 86.3145C54.6029 86.3565 55.8668 86.2054 56.9039 85.6931C56.9207 85.8652 56.9711 86.0374 57.0593 86.2096C57.3994 86.8604 58.0755 87.1544 58.7893 87.1544C59.5493 87.1544 60.2421 86.7975 60.7334 86.2306C60.9392 85.9912 61.1659 85.6679 61.3003 85.3277C61.6866 85.4495 62.1023 85.5461 62.5432 85.6007C64.693 85.8736 67.5651 85.7266 68.745 83.585C68.7828 83.5178 68.8122 83.4507 68.8458 83.3877C71.6381 83.8034 74.3129 84.7063 76.7945 86.1256C77.038 86.26 77.2648 85.8652 77.0128 85.735ZM59.3939 85.6091C58.9069 85.9618 57.7102 85.9324 57.4918 85.3361C58.0713 84.9288 58.5458 84.3787 58.8439 83.6354C59.1588 84.0637 59.5451 84.4207 59.9902 84.7146C59.8474 85.038 59.7131 85.3781 59.3939 85.6091ZM67.4728 83.3289C66.3138 84.66 63.975 84.4753 62.3962 84.1603C60.5445 83.7866 59.5745 82.7662 58.5919 81.2125C58.3736 80.864 57.8739 81.0949 57.9495 81.4854C58.0881 82.2287 58.3442 82.8712 58.6927 83.4129C58.6423 83.4045 58.5919 83.4171 58.5541 83.4633C57.391 84.8868 55.6359 85.4075 53.8513 85.3781C53.3306 85.3697 52.5874 85.3613 51.8442 85.2689C52.2977 84.975 52.7722 84.6978 53.2844 84.4375C53.4356 84.3619 53.3264 84.0973 53.1669 84.1603C52.4866 84.4291 51.798 84.7608 51.1262 85.1472C50.4585 85.0044 49.8455 84.7692 49.4634 84.3661C50.8616 84.0302 52.2725 83.753 53.6749 83.4339C53.8135 83.4045 53.7841 83.1651 53.6414 83.1861C52.1549 83.3835 50.6601 83.6312 49.1904 83.9672C49.0645 83.69 49.0183 83.3583 49.0897 82.9552C49.1401 82.6738 49.2282 82.4219 49.3374 82.1993C50.912 82.1321 52.4908 82.1657 54.0654 82.2959C54.2544 82.3127 54.2502 82.0229 54.0654 82.0019C52.5748 81.834 51.0842 81.7626 49.5977 81.7752C51.2647 79.6462 56.2027 80.57 58.5373 81.0529C58.5793 81.1075 58.6213 81.1663 58.6591 81.2251C58.9237 81.6576 59.5241 81.4015 59.4989 80.9479C59.5199 80.9227 59.5409 80.8976 59.5619 80.8724C59.6249 80.7884 59.6837 80.7044 59.7425 80.6204C61.5564 80.1921 63.32 79.1633 65.2053 79.1969C65.7428 79.2053 66.2551 79.3606 66.7001 79.6168C64.966 79.9527 63.236 80.4902 61.9133 81.6366C61.8965 81.6492 61.9175 81.6786 61.9343 81.666C63.4627 80.6918 65.3271 80.2215 67.1578 79.9401C67.4602 80.1963 67.7079 80.507 67.8717 80.8472C66.3474 81.0193 64.8358 81.3427 63.3662 81.8172C63.1142 81.897 63.2192 82.2917 63.4753 82.2161C64.9912 81.7836 66.5154 81.5106 68.048 81.3804C68.153 81.9011 68.0606 82.4597 67.7079 83.0014C67.3006 82.9636 66.8933 82.9342 66.4818 82.9132C66.3348 82.9048 66.3348 83.1315 66.4818 83.1399C66.8387 83.1567 67.1956 83.1861 67.5483 83.2197C67.5231 83.2575 67.5021 83.2911 67.4728 83.3289Z" fill="#251C1C"/>
<path d="M52.9708 69.5301C52.4417 68.2746 51.8413 66.4983 50.8083 65.5661C48.7382 63.6848 46.2356 66.0532 45.5386 68.031C45.0599 69.3874 44.9592 70.9327 44.9717 72.3562C44.9801 73.4774 44.6862 75.2495 45.5428 76.1397C45.7779 76.3833 46.1097 76.0767 45.9837 75.7996C45.3413 74.4138 45.9627 72.2386 46.1181 70.7647C46.286 69.2026 46.6849 67.0148 48.3267 66.3261C49.5276 65.8222 50.1491 66.6579 50.7117 67.6069C51.2156 68.4551 51.7153 69.3076 52.0806 70.2272C52.7104 71.8229 52.7986 73.2717 52.6181 74.9136C52.0134 74.9891 51.392 75.0605 50.7663 75.1403C50.8209 75.0563 50.8503 74.9556 50.8377 74.838C50.6823 73.3556 50.4598 71.8439 50.1239 70.391C49.9643 69.7149 49.6158 68.9129 48.776 69.0094C47.7011 69.1312 47.5919 70.8697 47.4575 71.6508C47.235 72.9609 47.1888 74.418 47.6171 75.6988C46.8823 75.8836 46.1643 76.1145 45.484 76.4169C45.4336 76.4379 45.463 76.5135 45.5092 76.5135C46.6177 76.5303 47.7515 76.3917 48.8768 76.2279C49.1833 76.2993 49.5234 76.2531 49.7964 76.0935C50.3128 76.018 50.8251 75.9424 51.3332 75.8878C51.8203 75.8332 52.828 75.892 53.2185 75.5854C53.5796 75.2999 53.6678 74.565 53.7266 74.1661C53.9701 72.5662 53.5964 71.0041 52.9708 69.5301Z" fill="#251C1C"/>
<path d="M39.9541 59.5352C39.4922 59.0691 38.7784 58.7961 38.1863 58.5526C37.7958 58.393 37.3591 58.8087 37.3969 59.1992C37.3465 59.258 37.3213 59.3378 37.3297 59.4302C37.3717 59.7872 37.4599 60.1273 37.5523 60.4716C37.632 60.774 37.6698 61.1477 37.8546 61.408C38.3459 62.0967 39.0597 61.408 39.509 61.0721C40.0045 60.7068 40.5377 60.1231 39.9541 59.5352Z" fill="#251C1C"/>
<path d="M75.0526 55.526C74.6286 56.1139 74.1709 56.6851 73.7972 57.3065C73.793 57.3107 73.793 57.3149 73.793 57.3191C73.7174 57.3275 73.6796 57.4325 73.73 57.4913C73.6544 57.9028 74.1037 58.2808 74.4858 58.138C74.6621 58.2598 74.8427 58.3731 75.04 58.4781C75.2962 58.6125 75.5565 58.4865 75.6573 58.2262C75.947 57.4787 75.9974 56.5885 76.0394 55.7906C76.0646 55.2237 75.334 55.1355 75.0526 55.526Z" fill="#251C1C"/>
<path d="M69.8676 68.6686C69.5988 67.1442 68.8808 64.3727 66.9913 64.1712C65.1269 63.9738 63.7161 66.2582 63.1072 67.7153C62.2422 69.7939 61.9945 72.3513 62.2884 74.5853C62.0533 74.8036 62.1414 75.3117 62.5529 75.3075C63.8882 75.2907 65.2571 75.2656 66.6134 75.3075C66.7435 75.5595 67.1214 75.6057 67.2684 75.3369C67.9822 75.3705 68.6919 75.4293 69.3889 75.5217C69.5148 75.5385 69.6618 75.4167 69.6828 75.2949C70.1237 73.1533 70.2455 70.827 69.8676 68.6686ZM69.0866 74.8876C68.5407 74.8498 67.9948 74.8078 67.449 74.7658C67.9696 72.7754 68.7296 68.3746 66.0717 68.1352C63.4011 67.8917 63.7035 72.9014 64.0856 74.5349C63.5901 74.5139 63.0946 74.4971 62.5949 74.4929C62.8301 72.8006 62.7587 71.0873 63.2038 69.4118C63.5565 68.0974 65.2319 64.062 67.2852 65.0908C68.0872 65.4939 68.5155 66.9679 68.7422 67.7531C68.9858 68.6056 69.1075 69.4874 69.1537 70.3692C69.2419 71.881 69.095 73.3801 69.0866 74.8876Z" fill="#251C1C"/>
<path d="M104.046 76.8277C102.089 75.0724 99.4063 74.1486 96.7904 74.5895C94.0778 75.0472 92.1547 77.1426 90.8026 79.4018C87.4729 84.9532 85.0584 91.4578 84.2984 97.9414C83.803 97.1771 83.2823 96.4339 82.7322 95.7074C81.7497 94.414 80.6537 92.9779 79.3436 91.9533C79.5998 91.7517 79.8475 91.5418 80.0785 91.3276C82.4719 89.1272 83.8827 85.9694 84.7351 82.8788C84.7897 82.6814 84.8401 82.4799 84.8863 82.2825C85.1676 81.9172 85.2936 81.4427 85.1634 81.0311C85.4825 79.3724 85.6253 77.6843 85.6085 75.9962C85.6589 75.6897 85.6379 75.3496 85.5791 74.9926C85.4154 71.797 84.6637 68.6266 83.3537 65.7123C82.6608 64.1712 81.8084 62.7057 80.8007 61.3452C80.2128 60.5473 79.4948 59.6025 78.6424 58.9474C78.6718 58.8844 78.697 58.8172 78.7138 58.7416C79.2681 55.8862 79.1547 53.1231 78.5752 50.2844C78.4745 49.7805 77.7396 49.4404 77.3071 49.7679C75.615 51.0529 73.9354 52.3462 72.2726 53.6648C71.5126 54.2695 70.6392 55.2941 69.6188 55.1933C68.6699 55.1009 67.7083 54.765 66.7635 54.6054C63.0936 53.9965 59.3356 53.8915 55.6489 54.387C51.9244 54.891 48.2881 55.9113 44.8869 57.5197C44.0807 57.9018 43.4131 58.2713 42.5145 57.8892C42.1702 57.7422 41.8594 57.4777 41.5487 57.2761C40.8013 56.7932 40.0371 56.3691 39.2183 56.0205C37.4925 55.2815 35.7037 54.9455 33.8478 54.7524C33.3187 54.6978 32.9618 55.3025 33.0836 55.756C33.8058 58.5149 34.7128 61.3955 36.2244 63.8311C36.2286 63.8353 36.2286 63.8353 36.2328 63.8395C31.6391 69.0004 29.2331 76.0299 30.4844 82.9166C31.4124 88.0228 34.2299 92.7386 38.3995 95.7452C36.6275 98.6805 35.0193 101.704 33.4363 104.753C31.8491 107.81 30.1653 110.85 28.8174 114.02C28.3723 115.07 27.9818 116.145 27.6837 117.237C27.6795 117.241 27.6795 117.241 27.6753 117.245C27.373 117.56 27.3058 117.955 27.4192 118.32C27.0875 119.874 26.9489 121.461 27.1001 123.078C27.373 125.988 28.3891 128.747 29.7958 131.292C31.467 134.315 33.642 137.112 35.9599 139.665C36.6905 140.467 37.82 139.295 37.1356 138.489C33.4699 134.13 29.5229 129.276 28.8594 123.401C28.7418 122.347 28.7544 121.31 28.8636 120.29C29.8084 121.046 31.0891 121.36 32.29 121.289C33.4783 121.218 34.9311 120.596 34.4105 119.131C33.9822 117.926 32.3278 116.821 31.1647 116.443C30.7112 116.296 30.2367 116.242 29.7748 116.275C30.1989 115.003 30.7322 113.756 31.3158 112.525C31.6853 113.201 32.311 113.785 32.8358 114.285C33.5413 114.952 34.5196 115.91 35.5106 116.074C36.5309 116.242 37.4295 115.469 37.5345 114.457C37.6479 113.378 36.9298 112.311 36.3336 111.471C35.7163 110.598 34.5112 109.057 33.2725 108.691C33.7638 107.763 34.2509 106.844 34.7002 105.937C36.2832 102.754 37.8368 99.5665 39.2183 96.3037C39.487 96.4759 39.7641 96.6396 40.0455 96.7992C40.478 98.164 41.4815 99.5119 42.8 99.9528C43.1275 100.062 43.3291 99.6337 43.1191 99.4027C42.6068 98.8442 42.0148 98.3697 41.5109 97.8028C41.3933 97.6685 41.2884 97.5341 41.1876 97.3955C41.4143 97.5005 41.6411 97.6055 41.872 97.702C43.5306 98.4033 44.5342 96.0812 42.8378 95.4093C40.6081 94.5274 38.58 93.1291 36.8837 91.399C37.7864 90.471 38.8656 88.8711 37.8788 87.9053C36.9424 86.994 35.5526 87.8129 34.6288 88.6275C34.1459 87.9053 33.7134 87.1536 33.3355 86.3725C34.9269 85.5831 38.0468 83.895 36.9802 81.8542C36.1572 80.2795 33.2179 80.5188 31.7735 81.3503C31.6475 80.5314 31.5678 79.7042 31.5426 78.8811C31.6181 79.0785 31.7189 79.2506 31.8617 79.364C32.5083 79.9057 33.6043 79.3052 34.2635 79.0995C35.3636 78.7593 36.5813 78.4864 37.4967 77.7389C38.7144 76.7437 39.1049 74.9129 37.8032 73.8295C37.0096 73.1702 35.9641 73.0778 34.9773 73.0568C34.0577 73.0358 33.0668 72.9476 32.1766 73.2038C33.0122 69.815 34.6288 66.6026 36.8039 63.9109C36.9046 63.7891 36.8627 63.6379 36.7703 63.5581C36.4344 61.1268 35.7079 58.729 34.9563 56.3817C36.7745 56.5496 38.5506 57.1669 40.1295 58.0824C41.7503 59.023 42.7748 59.8292 44.7021 59.2456C46.6001 58.6703 48.4014 57.843 50.3246 57.3307C50.6143 57.2551 50.904 57.1795 51.1937 57.1123C51.03 58.0908 51.9832 59.3841 52.8565 59.5437C54.0448 59.762 55.1114 58.4687 55.2332 57.3223C55.3717 57.5071 55.5229 57.675 55.6615 57.8052C56.0184 58.1412 56.4341 58.4393 56.9421 58.4519C57.5132 58.4645 58.0171 58.1453 58.3362 57.6834C58.4832 57.4735 58.6007 57.2173 58.6763 56.9528C58.7771 57.2383 58.9241 57.5029 59.0836 57.696C59.3272 57.9858 59.7722 58.2713 60.2509 58.4351C61.3595 58.9642 62.7325 58.6702 63.7319 58.0236C64.2567 57.6834 64.8404 57.0745 65.042 56.4447C66.2681 56.6084 67.4941 56.831 68.7202 57.1039C69.5055 57.2803 70.2235 57.4105 71.0045 57.1291C71.7645 56.852 72.3818 56.2095 72.9948 55.7014C74.4141 54.513 75.8207 53.3162 77.219 52.1027C77.5759 54.1477 77.5213 56.2599 77.1392 58.2965C77.0888 58.5695 77.1644 58.8004 77.3029 58.9768C77.9412 60.287 79.1715 61.4333 79.9819 62.6217C80.9267 64.0117 81.7287 65.5108 82.3543 67.0729C82.854 68.3117 83.2487 69.5882 83.5384 70.89C82.4845 70.9068 81.4347 71.1882 80.4438 71.5325C79.5788 71.8348 78.529 72.1078 77.8026 72.6873C76.1356 74.0142 77.3323 75.5721 78.8482 76.2608C80.3304 76.9369 82.3921 77.4828 84.1011 77.2014C84.0759 77.8145 84.0213 78.4402 83.9457 79.0659C83.0135 78.6838 81.7916 78.6166 80.8427 78.688C79.9147 78.7551 79.1673 79.3053 78.9196 80.2165C78.3191 82.4463 80.5026 83.622 82.2577 84.1931C82.3879 84.2351 82.5097 84.2435 82.6188 84.2267C82.2745 85.0582 81.863 85.8518 81.3843 86.5951C80.8763 86.297 80.322 86.1374 79.7215 86.0996C79.1169 86.0618 78.3065 86.1206 77.8488 86.5657C77.3869 87.0192 77.4289 87.7331 77.7438 88.2538C77.8908 88.5015 78.105 88.7031 78.3359 88.8669C78.5416 89.0097 78.7936 89.102 78.9783 89.27C78.3023 89.8117 77.5717 90.2904 76.8033 90.7103C75.1195 91.63 73.2803 91.8399 71.4706 92.3774C70.572 92.6462 70.4754 94.0781 71.4706 94.2965C71.9409 94.3973 72.4195 94.4435 72.8982 94.4393C72.7261 94.8256 72.5749 95.2161 72.302 95.5688C71.9073 96.0728 71.395 96.5347 70.8281 96.837C70.5426 96.9882 70.7442 97.5005 71.0507 97.3703C72.2894 96.8496 73.7506 95.7746 74.0236 94.3511C75.6234 94.1117 77.2106 93.4146 78.5626 92.5034C79.3269 93.7464 80.3304 94.8634 81.124 96.0938C81.9974 97.4417 82.8582 98.7854 83.635 100.196C84.7729 102.258 85.7513 104.417 86.5617 106.634C85.4951 107.079 84.5588 108.045 83.8911 108.906C82.9086 110.174 83.0681 111.429 84.3698 112.399C85.386 113.159 86.9858 113.411 88.1153 112.731C88.1867 112.689 88.2455 112.643 88.3042 112.601C88.4638 113.319 88.6024 114.037 88.7241 114.759C88.2161 114.826 87.6912 115.108 87.3133 115.347C86.4651 115.885 85.7849 116.691 85.386 117.611C84.9661 118.576 85.0249 119.647 85.8059 120.42C86.6289 121.235 87.813 121.318 88.9047 121.281C89.0685 121.276 89.2154 121.234 89.3456 121.172C89.4044 123.653 89.249 126.139 88.8585 128.587C88.5436 130.565 88.1531 132.61 87.2629 134.42C86.675 135.617 85.8562 136.65 84.9115 137.565C84.9451 136.99 84.9703 136.415 84.9787 135.844C84.9913 135.109 84.9829 134.378 84.9577 133.643C85.1004 133.358 85.0962 132.992 84.9535 132.686C84.9367 132.652 84.9241 132.619 84.9115 132.581C84.7981 130.456 84.5504 128.34 84.1935 126.244C83.6434 123.011 82.7952 119.824 81.7749 116.708C80.9519 114.205 79.9357 111.396 77.9118 109.59C78.2939 109.015 78.697 108.465 79.1085 107.906C79.4108 107.499 78.7348 106.978 78.4031 107.364C77.8362 108.02 77.2736 108.662 76.6605 109.275C76.4212 109.514 76.4296 109.909 76.6605 110.149C78.7054 112.269 79.6586 114.852 80.5194 117.623C80.8847 118.795 81.2164 119.975 81.5229 121.163C80.4102 121.449 79.2387 122.2 78.3191 122.788C77.5297 123.292 76.7403 124.077 76.9082 125.098C77.2778 127.349 81.1072 127.088 82.7028 126.714C82.8204 127.403 82.9212 128.092 83.0093 128.785C81.7371 129.032 80.4186 129.079 79.2177 129.595C78.2855 129.998 76.5639 130.851 76.9124 132.119C77.2274 133.248 78.9825 133.782 79.9819 134.051C81.1114 134.353 82.2745 134.412 83.4208 134.26C83.4292 134.785 83.4334 135.314 83.425 135.844C83.4208 136.146 83.4083 136.452 83.3999 136.755C83.3873 136.755 83.3747 136.751 83.3579 136.751C81.5019 136.641 78.3989 137.578 77.8278 139.644C77.072 142.403 81.7916 141.114 83.0765 140.639C82.8918 142 82.5055 143.343 82.3375 144.7C82.2703 144.763 82.2199 144.843 82.1905 144.948C82.0184 145.556 81.9092 146.17 81.842 146.799C81.7748 147.442 82.791 147.551 82.9506 146.951C82.9632 146.9 82.9758 146.85 82.9884 146.804C83.0051 146.783 83.0219 146.762 83.0345 146.741C83.2487 146.711 83.4502 146.577 83.5384 146.304C83.5594 146.237 83.5804 146.169 83.5972 146.102C83.7232 145.997 83.8113 145.846 83.8155 145.674C83.8155 145.64 83.8155 145.611 83.8155 145.577C83.8155 145.447 83.7694 145.309 83.6854 145.204C84.227 143.805 84.4076 142.201 84.605 140.736C84.6427 140.467 84.6721 140.194 84.7015 139.925C87.9305 138.078 89.5681 134.718 90.3366 131.187C90.8572 128.797 91.1596 126.353 91.2603 123.901C92.1841 121.801 93.1415 119.756 94.4179 117.804C96.0933 115.242 97.7351 112.651 99.4189 110.09C102.845 104.87 106.204 99.4195 107.557 93.2425C108.762 87.8171 108.485 80.8044 104.046 76.8277ZM79.1379 87.6239C79.1211 87.6155 79.1043 87.6071 79.0875 87.5987C79.0203 87.5609 78.9909 87.5315 78.9783 87.5063C79.0581 87.4559 79.1715 87.4223 79.3017 87.4014C79.2387 87.4643 79.1799 87.5399 79.1379 87.6239ZM81.6027 122.633C81.5145 122.574 81.4179 122.532 81.313 122.519C81.4725 122.389 81.6237 122.255 81.7665 122.112C81.7958 122.238 81.8252 122.36 81.8546 122.486C81.7664 122.532 81.6825 122.578 81.6027 122.633ZM91.5836 82.3833C91.6298 82.4505 91.676 82.5218 91.7222 82.589C91.6088 82.7066 91.5039 82.8284 91.4199 82.9628C91.3905 82.9376 91.3611 82.9166 91.3317 82.8914C91.3275 82.8872 91.3233 82.8872 91.3191 82.883C91.4031 82.7192 91.4913 82.5554 91.5836 82.3833ZM86.9606 108.313C86.8682 108.313 86.7758 108.318 86.6876 108.33C86.6247 108.339 86.5659 108.355 86.5071 108.368C86.6708 108.2 86.8388 108.041 87.011 107.885C87.0236 107.923 87.0362 107.957 87.0446 107.994C86.9858 108.087 86.9522 108.2 86.9606 108.313ZM103.429 98.3823C103.202 98.0254 102.98 97.6684 102.757 97.3073C102.963 97.5425 103.181 97.7692 103.412 97.9918C103.458 98.0338 103.505 98.0716 103.555 98.1052C103.513 98.2018 103.471 98.29 103.429 98.3823ZM105.197 93.2929C104.718 92.4656 104.038 91.7602 103.211 91.2394C102.031 90.4962 99.8556 89.8915 98.6883 90.9623C97.2775 92.2556 98.9277 94.2545 99.7171 95.4009C100.691 96.816 101.724 98.1976 102.984 99.3649C102.556 100.28 102.098 101.183 101.611 102.073C100.91 100.776 99.969 99.5497 98.7891 98.6889C97.4328 97.7021 95.5811 97.7608 94.6951 99.3272C93.8847 100.759 94.4725 102.338 95.2871 103.615C95.854 104.501 96.4586 105.366 97.0591 106.231C97.416 106.743 97.7645 107.297 98.1592 107.805C97.9199 108.175 97.6806 108.549 97.4412 108.914C95.7868 111.459 94.0023 114.029 92.688 116.771C92.2177 117.753 91.7222 118.757 91.2603 119.782C90.9244 113.122 89.1189 106.52 85.9234 100.667C85.6043 100.083 85.2726 99.5035 84.9241 98.9366C85.5875 96.8118 86.2761 94.708 87.032 92.6252C87.519 93.5784 88.5478 94.477 89.2154 95.0061C90.2568 95.8292 91.9196 96.7278 93.0659 95.5604C94.2332 94.3721 93.0323 92.2976 92.4276 91.1135C91.6256 89.5429 90.5423 88.2202 89.2994 86.994C89.7403 86.0114 90.2064 85.0372 90.6977 84.0714C91.168 85.0498 92.0287 85.9148 92.7929 86.6245C93.6453 87.414 94.8336 88.5393 96.0555 88.6275C97.3992 88.7241 98.1298 87.5567 98.0795 86.3389C98.0249 84.9574 97.3362 83.5465 96.6308 82.3917C96.1479 81.6022 95.0184 79.8049 93.7881 78.9105C94.4179 78.1714 95.1486 77.55 96.0178 77.1594C98.1424 76.2062 100.754 76.9537 102.434 78.4402C106.465 82.0011 106.402 88.4595 105.197 93.2929ZM100.498 93.1039C100.511 93.1459 100.523 93.1921 100.536 93.2341C100.523 93.2089 100.515 93.1837 100.502 93.1585C100.469 93.0829 100.385 92.7134 100.271 92.6546C100.326 92.6504 100.401 92.6588 100.477 92.6714C100.452 92.8099 100.456 92.9569 100.498 93.1039ZM90.5675 93.6666C90.5045 93.633 90.4415 93.6036 90.3827 93.57C90.4205 93.57 90.4583 93.5742 90.4961 93.5742C90.5423 93.57 90.5885 93.5658 90.6347 93.5574C90.6095 93.5868 90.5885 93.6246 90.5675 93.6666Z" fill="#251C1C"/>
<path d="M74.7043 106.151C73.453 103.258 70.6607 101.045 67.6542 100.205C64.7485 99.3946 60.7973 99.7306 58.5593 101.96C56.993 100.822 54.9271 100.436 52.962 100.843C49.8086 101.498 47.2304 103.909 45.8532 106.747C45.828 106.798 45.8952 106.857 45.933 106.81C47.7175 104.719 49.6154 102.62 52.3658 101.86C55.0321 101.125 58.0302 101.998 59.3067 104.581C59.6468 105.265 60.7091 104.656 60.3354 103.98C59.9953 103.363 59.567 102.834 59.0757 102.384C61.8009 101.335 64.379 100.499 67.3519 101.318C70.2324 102.112 72.3613 104.127 73.7973 106.684C74.1374 107.293 74.9688 106.76 74.7043 106.151Z" fill="#251C1C"/>
<path d="M40.9272 33.13C36.6274 37.1529 32.6048 41.4781 28.3261 45.5303C27.9272 45.9082 28.5318 46.5087 28.9265 46.1308C33.1885 42.0996 37.568 38.0515 41.3765 33.5793C41.6452 33.2728 41.2337 32.8445 40.9272 33.13Z" fill="#251C1C"/>
<path d="M23.5754 67.7497C21.6103 69.7359 19.6577 71.7264 17.7136 73.7294C17.4869 73.9646 17.8396 74.3173 18.0747 74.0905C20.0776 72.1463 22.0721 70.1936 24.0541 68.2284C24.3606 67.9218 23.8819 67.4389 23.5754 67.7497Z" fill="#251C1C"/>
<path d="M26.0392 91.2652C22.9235 94.2887 19.8751 97.3793 16.8056 100.453C16.5369 100.722 16.9526 101.142 17.2255 100.873C20.2992 97.8076 23.3896 94.7548 26.4129 91.6389C26.648 91.3954 26.2827 91.0301 26.0392 91.2652Z" fill="#251C1C"/>
<path d="M62.2233 30.3001C59.2168 33.1346 56.3363 36.1119 53.4474 39.0639C53.1997 39.3159 53.5818 39.698 53.8337 39.4503C56.7856 36.557 59.7627 33.6805 62.597 30.6739C62.8279 30.4261 62.471 30.0692 62.2233 30.3001Z" fill="#251C1C"/>
<path d="M74.9134 35.1005C72.9147 37.0489 70.9412 39.0226 68.9635 40.992C68.6401 41.3154 69.144 41.8193 69.4673 41.4959C71.4451 39.5265 73.4228 37.557 75.3753 35.5624C75.6734 35.2643 75.2157 34.8066 74.9134 35.1005Z" fill="#251C1C"/>
<path d="M91.9427 52.57L86.9081 57.6217C86.5512 57.9786 87.1055 58.5371 87.4624 58.176L92.5138 53.1411C92.8917 52.7758 92.3122 52.1963 91.9427 52.57Z" fill="#251C1C"/>
<path d="M99.6244 65.0783C96.6557 68.1017 93.6829 71.1252 90.7142 74.1528C90.4623 74.409 90.8528 74.7953 91.1047 74.5434C94.128 71.5745 97.1554 68.6056 100.179 65.6326C100.544 65.2799 99.9813 64.7172 99.6244 65.0783Z" fill="#251C1C"/>
<path d="M102.148 118.694C100.137 120.558 98.1678 122.456 96.1985 124.367C95.913 124.644 96.3497 125.081 96.6352 124.804C98.6129 122.906 100.582 121.008 102.522 119.068C102.761 118.828 102.396 118.467 102.148 118.694Z" fill="#251C1C"/>
</svg>
