<svg width="14" height="21" viewBox="0 0 14 21" fill="none" xmlns="http://www.w3.org/2000/svg">
<path d="M13.42 14.12C13.42 11.56 10.4 10.38 7.9 9.54V6.62C8.94 6.86 9.64 7.46 9.64 8.7H12.84C12.84 6.2 11.3 4.18 7.9 3.78V0.939999H5.9V3.72C2.7 3.88 1.04 5.18 1.04 7.42C1.04 10.02 3.18 10.88 5.9 11.8V15.3C4.26 15.04 3.6 14.26 3.6 12.56H0.4C0.4 15.76 1.92 17.76 5.9 18.14V20.96H7.9V18.2C11.86 18.06 13.42 16.44 13.42 14.12ZM4.24 7.54C4.24 6.94 4.86 6.62 5.9 6.52V8.86C4.48 8.34 4.24 8.08 4.24 7.54ZM7.9 15.4V12.48C9.26 12.94 10.22 13.4 10.22 14.16C10.22 14.86 9.64 15.34 7.9 15.4Z" fill="white"/>
</svg>
