<svg width="120" height="40" viewBox="0 0 120 40" fill="none" xmlns="http://www.w3.org/2000/svg">
<path fill-rule="evenodd" clip-rule="evenodd" d="M45.739 12.0959H39.5619C39.1394 12.0957 38.7795 12.403 38.7137 12.8203L36.2154 28.6602C36.1922 28.809 36.2352 28.9604 36.3332 29.0747C36.4312 29.1891 36.5743 29.2547 36.7248 29.2545H39.6739C40.0966 29.2547 40.4566 28.9469 40.522 28.5292L41.1958 24.257C41.2612 23.8396 41.6206 23.5319 42.043 23.5317H43.9985C48.0675 23.5317 50.4159 21.5627 51.0292 17.6607C51.3056 15.9536 51.041 14.6123 50.2416 13.673C49.3637 12.6415 47.8065 12.0959 45.739 12.0959ZM46.4517 17.8811C46.1139 20.0976 44.4203 20.0976 42.7828 20.0976H41.8506L42.5046 15.9581C42.5441 15.7079 42.7598 15.5237 43.0131 15.5237H43.4403C44.5558 15.5237 45.6081 15.5237 46.1518 16.1596C46.4761 16.5389 46.5754 17.1025 46.4517 17.8811ZM61.2456 17.8098H64.2037C64.354 17.8097 64.4967 17.8756 64.5942 17.9899C64.6917 18.1043 64.7342 18.2557 64.7104 18.4041L63.1117 28.5283C63.0462 28.946 62.6863 29.2538 62.2635 29.2536H59.599C59.4484 29.2534 59.3054 29.1872 59.2078 29.0726C59.1102 28.9579 59.0676 28.8062 59.0914 28.6575L59.2233 27.8356C59.2233 27.8356 57.7628 29.5291 55.129 29.5291C53.5944 29.5291 52.3046 29.0865 51.4031 28.0243C50.4204 26.8691 50.0185 25.2126 50.3012 23.4802C50.845 20.0073 53.6368 17.5316 56.9056 17.5316C58.3309 17.5316 59.7589 17.8423 60.3993 18.7717L60.6061 19.0716L60.7371 18.2442C60.7766 17.994 60.9923 17.8098 61.2456 17.8098ZM60.0804 23.5669C59.795 25.2569 58.4537 26.3913 56.743 26.3913C55.8841 26.3913 55.1976 26.1158 54.7568 25.5938C54.3197 25.0753 54.1535 24.3374 54.2926 23.5154C54.559 21.8399 55.9229 20.6685 57.6074 20.6685C58.4474 20.6685 59.1302 20.9476 59.5801 21.4741C60.0308 22.0061 60.2096 22.7486 60.0804 23.5669ZM76.9852 17.8098H79.9577C80.1493 17.8098 80.325 17.9163 80.4137 18.086C80.5025 18.2558 80.4897 18.4608 80.3804 18.6181L70.4937 32.8891C70.3333 33.1203 70.0697 33.258 69.7883 33.2576H66.8194C66.6268 33.2577 66.4502 33.1502 66.3618 32.9791C66.2734 32.808 66.2879 32.6018 66.3994 32.4447L69.4776 28.0993L66.2034 18.4908C66.1497 18.3333 66.1754 18.1596 66.2724 18.0245C66.3694 17.8893 66.5257 17.8093 66.692 17.8098H69.6131C69.9926 17.8099 70.3273 18.0587 70.4368 18.4221L72.1746 24.2254L76.2744 18.1864C76.4346 17.9512 76.7006 17.8102 76.9852 17.8098Z" fill="#151515"/>
<path fill-rule="evenodd" clip-rule="evenodd" d="M109.215 28.6601L111.75 12.5303C111.79 12.2803 112.005 12.0959 112.258 12.095H115.112C115.263 12.0952 115.405 12.1613 115.503 12.2757C115.601 12.3902 115.643 12.5416 115.62 12.6902L113.12 28.5292C113.055 28.9474 112.695 29.2545 112.271 29.2545H109.723C109.572 29.2545 109.429 29.1886 109.332 29.0743C109.234 28.96 109.191 28.8086 109.215 28.6601ZM89.7992 12.0959H83.6212C83.199 12.0961 82.8397 12.4033 82.7739 12.8203L80.2756 28.6601C80.2521 28.8086 80.2948 28.96 80.3924 29.0743C80.4901 29.1886 80.6329 29.2545 80.7832 29.2545H83.9536C84.249 29.254 84.5003 29.0388 84.5461 28.7468L85.2551 24.2569C85.3205 23.8396 85.6799 23.5319 86.1023 23.5316H88.0569C92.1268 23.5316 94.4743 21.5626 95.0885 17.6606C95.3658 15.9536 95.0994 14.6123 94.3 13.6729C93.423 12.6414 91.8667 12.0959 89.7992 12.0959ZM90.5119 17.881C90.175 20.0976 88.4814 20.0976 86.843 20.0976H85.9117L86.5666 15.9581C86.6054 15.7078 86.821 15.5233 87.0742 15.5236H87.5014C88.616 15.5236 89.6692 15.5236 90.2129 16.1595C90.5372 16.5388 90.6356 17.1025 90.5119 17.881ZM105.307 17.8097H108.263C108.414 17.8095 108.557 17.8752 108.655 17.9894C108.753 18.1037 108.796 18.2552 108.773 18.404L107.174 28.5283C107.108 28.9456 106.749 29.2533 106.326 29.2536H103.663C103.512 29.2539 103.368 29.1879 103.27 29.0732C103.172 28.9584 103.13 28.8065 103.153 28.6574L103.285 27.8355C103.285 27.8355 101.825 29.529 99.191 29.529C97.6564 29.529 96.3684 29.0865 95.4652 28.0243C94.4825 26.869 94.0823 25.2125 94.3641 23.4801C94.9079 20.0072 97.6988 17.5315 100.968 17.5315C102.393 17.5315 103.82 17.8422 104.46 18.7716L104.668 19.0715L104.799 18.2441C104.838 17.9937 105.053 17.809 105.307 17.8097ZM104.14 23.5668C103.856 25.2568 102.513 26.3912 100.802 26.3912C99.9452 26.3912 99.2569 26.1157 98.8161 25.5937C98.379 25.0752 98.2146 24.3373 98.3519 23.5154C98.6201 21.8399 99.9822 20.6684 101.667 20.6684C102.507 20.6684 103.19 20.9475 103.639 21.4741C104.092 22.0061 104.271 22.7485 104.14 23.5668Z" fill="#151515"/>
<path d="M10.5628 32.3326L11.0352 29.332L9.9829 29.3076H4.95825L8.45012 7.16687C8.47161 7.02705 8.59227 6.92406 8.73374 6.92481H17.206C20.0186 6.92481 21.9597 7.5101 22.9731 8.66532C23.4482 9.20726 23.7508 9.77358 23.8971 10.3968C24.0506 11.0507 24.0533 11.832 23.9034 12.7849L23.8926 12.8545V13.4651L24.3677 13.7342C24.7304 13.918 25.0564 14.1665 25.3296 14.4676C25.7361 14.931 25.9989 15.5199 26.11 16.2181C26.2247 16.9362 26.1868 17.7906 25.9989 18.758C25.7821 19.8707 25.4317 20.8399 24.9584 21.6329C24.5408 22.3434 23.9793 22.9587 23.31 23.4394C22.6813 23.8856 21.9344 24.2243 21.0899 24.4411C20.2715 24.6542 19.3385 24.7617 18.3152 24.7617H17.6558C17.1843 24.7617 16.7264 24.9315 16.3669 25.2359C16.0079 25.5435 15.7698 25.9686 15.6949 26.4354L15.6452 26.7055L14.8106 31.9938L14.7727 32.188C14.7628 32.2495 14.7456 32.2802 14.7203 32.3009C14.6958 32.321 14.6653 32.3321 14.6336 32.3326H10.5628Z" fill="#253B80"/>
<path d="M24.8174 12.925C24.7921 13.0867 24.7632 13.252 24.7307 13.4218C23.6134 19.1582 19.791 21.1399 14.909 21.1399H12.4234C11.8263 21.1399 11.3232 21.5734 11.2302 22.1623L9.95756 30.2336L9.59717 32.5214C9.56812 32.7051 9.62091 32.8923 9.74165 33.0337C9.86238 33.1751 10.039 33.2566 10.2249 33.2567H14.6336C15.1556 33.2567 15.5991 32.8773 15.6813 32.3625L15.7247 32.1385L16.5547 26.8709L16.608 26.5818C16.6893 26.0652 17.1337 25.6858 17.6558 25.6858H18.3151C22.5865 25.6858 25.9302 23.9516 26.9075 18.9333C27.3158 16.8369 27.1044 15.0865 26.0241 13.8554C25.6818 13.4745 25.2728 13.1593 24.8174 12.925V12.925Z" fill="#636363"/>
<path d="M23.6487 12.459C23.2919 12.3558 22.929 12.2752 22.5621 12.2178C21.8371 12.1064 21.1044 12.0529 20.3709 12.0579H13.7304C13.2082 12.0575 12.7637 12.438 12.6835 12.9539L11.2709 21.9013L11.2302 22.1623C11.3212 21.5738 11.8279 21.1396 12.4234 21.1399H14.9091C19.791 21.1399 23.6135 19.1573 24.7307 13.4218C24.7642 13.252 24.7922 13.0867 24.8175 12.925C24.5226 12.7704 24.2154 12.6408 23.8989 12.5376C23.8159 12.51 23.7325 12.4838 23.6487 12.459Z" fill="#393939"/>
<path d="M12.6835 12.9539C12.7631 12.4377 13.2081 12.0572 13.7304 12.0588H20.3709C21.1576 12.0588 21.8919 12.1103 22.5621 12.2187C23.0156 12.29 23.4629 12.3966 23.8998 12.5375C24.2295 12.6468 24.5357 12.776 24.8184 12.925C25.1508 10.8052 24.8157 9.36181 23.6695 8.05484C22.4059 6.616 20.1252 6 17.2069 6H8.73463C8.1385 6 7.62999 6.43355 7.53786 7.02335L4.00896 29.3917C3.97569 29.6019 4.03604 29.8161 4.17414 29.978C4.31223 30.1399 4.51424 30.2333 4.72702 30.2335H9.9576L11.2709 21.9013L12.6835 12.9539Z" fill="#151515"/>
<path opacity="0.01" fill-rule="evenodd" clip-rule="evenodd" d="M0 0H120V40H0V0Z" fill="white"/>
</svg>
