<svg width="86" height="40" viewBox="0 0 86 40" fill="none" xmlns="http://www.w3.org/2000/svg">
<path d="M36.5862 31.6592H30.1504L34.1758 6.76904H40.6113L36.5862 31.6592Z" fill="#151515"/>
<path d="M59.9165 7.37754C58.6471 6.87393 56.6337 6.31787 54.1441 6.31787C47.7885 6.31787 43.313 9.70699 43.2855 14.5524C43.2327 18.1274 46.4899 20.113 48.926 21.305C51.4159 22.523 52.2623 23.318 52.2623 24.4037C52.237 26.0712 50.2503 26.8398 48.3974 26.8398C45.8279 26.8398 44.4511 26.4435 42.3589 25.5158L41.5114 25.1182L40.6108 30.7055C42.1203 31.3931 44.9013 32.0034 47.7885 32.0301C54.5414 32.0301 58.9378 28.6935 58.9899 23.5299C59.0156 20.6965 57.2957 18.5254 53.5877 16.7513C51.3367 15.6124 49.9582 14.8445 49.9582 13.6793C49.9846 12.6199 51.1241 11.5349 53.6651 11.5349C55.7574 11.4818 57.2946 11.9847 58.4591 12.488L59.0412 12.7523L59.9165 7.37754Z" fill="#151515"/>
<path fill-rule="evenodd" clip-rule="evenodd" d="M71.4363 6.76904H76.4144L81.6065 31.6588H75.6475C75.6475 31.6588 75.0644 28.799 74.8796 27.9252H66.6166C66.3776 28.5868 65.2658 31.6588 65.2658 31.6588H58.5129L68.0725 8.83419C68.7348 7.21881 69.9012 6.76904 71.4363 6.76904ZM71.0397 15.8774C71.0397 15.8774 69.0002 21.4116 68.4702 22.8415H73.8196C73.5549 21.5971 72.3362 15.6392 72.3362 15.6392L71.8864 13.4945C71.697 14.0468 71.4231 14.8061 71.2383 15.3182C71.1131 15.6653 71.0289 15.8989 71.0397 15.8774Z" fill="#151515"/>
<path d="M24.7749 6.76904L18.4722 23.7417L17.7834 20.2995C16.6182 16.3276 12.9637 12.0121 8.8855 9.86641L14.6586 31.6328H21.4643L31.5803 6.76904H24.7749V6.76904Z" fill="#151515"/>
<path d="M12.6195 6.76904H2.26487L2.15894 7.27196C10.2362 9.33745 15.5856 14.3163 17.7834 20.3005L15.5324 8.86129C15.1618 7.2716 14.023 6.82148 12.6195 6.76904Z" fill="#151515"/>
<path opacity="0.01" fill-rule="evenodd" clip-rule="evenodd" d="M0 0H86V40H0V0Z" fill="white"/>
</svg>
